{
  "accessors": [
    {
      "bufferView": 2,
      "componentType": 5126,
      "count": 13,
      "max": [
        0.9949573874473572,
        1.090129017829895,
        0.9999999403953552
      ],
      "min": [
        -0.9949572682380676,
        0.9999999403953552,
        -1.000000238418579
      ],
      "type": "VEC3"
    },
    {
      "bufferView": 2,
      "byteOffset": 156,
      "componentType": 5126,
      "count": 13,
      "max": [
        0.09239852428436279,
        1.0,
        0.024774957448244095
      ],
      "min": [
        -0.09239856898784637,
        0.9954138398170471,
        -0.02477484941482544
      ],
      "type": "VEC3"
    },
    {
      "bufferView": 1,
      "componentType": 5126,
      "count": 13,
      "max": [
        0.2923157215118408,
        0.2908620238304138
      ],
      "min": [
        0.006260111927986145,
        0.004443109035491943
      ],
      "type": "VEC2"
    },
    {
      "bufferView": 1,
      "byteOffset": 104,
      "componentType": 5126,
      "count": 13,
      "max": [
        0.2923157215118408,
        0.2908620238304138
      ],
      "min": [
        0.006260111927986145,
        0.004443109035491943
      ],
      "type": "VEC2"
    },
    {
      "bufferView": 0,
      "componentType": 5125,
      "count": 36,
      "type": "SCALAR"
    },
    {
      "bufferView": 2,
      "byteOffset": 312,
      "componentType": 5126,
      "count": 48721,
      "max": [
        139.73892211914063,
        203.97756958007813,
        222.23300170898438
      ],
      "min": [
        -95.88980102539063,
        5.609798431396484,
        34.325496673583984
      ],
      "type": "VEC3"
    },
    {
      "bufferView": 2,
      "byteOffset": 584964,
      "componentType": 5126,
      "count": 48721,
      "max": [
        1.0,
        1.0,
        1.0
      ],
      "min": [
        -1.0,
        -1.0,
        -1.0
      ],
      "type": "VEC3"
    },
    {
      "bufferView": 1,
      "byteOffset": 208,
      "componentType": 5126,
      "count": 48721,
      "max": [
        3.4985849857330322,
        1.0019603967666626
      ],
      "min": [
        -3.547692060470581,
        -0.0094859404489398
      ],
      "type": "VEC2"
    },
    {
      "bufferView": 1,
      "byteOffset": 389976,
      "componentType": 5126,
      "count": 48721,
      "max": [
        0.9404568672180176,
        0.9980080723762512
      ],
      "min": [
        0.0018771595787256956,
        0.00199203216470778
      ],
      "type": "VEC2"
    },
    {
      "bufferView": 0,
      "byteOffset": 144,
      "componentType": 5125,
      "count": 72423,
      "type": "SCALAR"
    },
    {
      "bufferView": 2,
      "byteOffset": 1169616,
      "componentType": 5126,
      "count": 552,
      "max": [
        121.21434020996094,
        25.333393096923828,
        229.06271362304688
      ],
      "min": [
        -86.61492919921875,
        11.682557106018066,
        21.233444213867188
      ],
      "type": "VEC3"
    },
    {
      "bufferView": 2,
      "byteOffset": 1176240,
      "componentType": 5126,
      "count": 552,
      "max": [
        0.5448028445243835,
        1.0,
        0.5448029637336731
      ],
      "min": [
        -0.5448032021522522,
        0.836605966091156,
        -0.5448033213615417
      ],
      "type": "VEC3"
    },
    {
      "bufferView": 1,
      "byteOffset": 779744,
      "componentType": 5126,
      "count": 552,
      "max": [
        1.0,
        0.9954044818878174
      ],
      "min": [
        -5.960464477539063e-08,
        0.2999999523162842
      ],
      "type": "VEC2"
    },
    {
      "bufferView": 1,
      "byteOffset": 784160,
      "componentType": 5126,
      "count": 552,
      "max": [
        1.0,
        0.9954044818878174
      ],
      "min": [
        -5.960464477539063e-08,
        0.2999999523162842
      ],
      "type": "VEC2"
    },
    {
      "bufferView": 1,
      "byteOffset": 788576,
      "componentType": 5126,
      "count": 552,
      "max": [
        0.940456748008728,
        0.2416004091501236
      ],
      "min": [
        0.0018771609757095575,
        0.00199203216470778
      ],
      "type": "VEC2"
    },
    {
      "bufferView": 0,
      "byteOffset": 289836,
      "componentType": 5125,
      "count": 792,
      "type": "SCALAR"
    }
  ],
  "asset": {
    "extras": {
      "author": "kennethtzh (https://sketchfab.com/kennethtzh)",
      "license": "CC-BY-4.0 (http://creativecommons.org/licenses/by/4.0/)",
      "source": "https://sketchfab.com/3d-models/dae-villages-shipwrecked-chinese-supply-store-af2da248227c4dac96fc2570e58e26da",
      "title": "DAE Villages | Shipwrecked Chinese Supply Store"
    },
    "generator": "Sketchfab-11.22.0",
    "version": "2.0"
  },
  "bufferViews": [
    {
      "buffer": 0,
      "byteLength": 293004,
      "name": "floatBufferViews",
      "target": 34963
    },
    {
      "buffer": 0,
      "byteLength": 792992,
      "byteOffset": 293004,
      "byteStride": 8,
      "name": "floatBufferViews",
      "target": 34962
    },
    {
      "buffer": 0,
      "byteLength": 1182864,
      "byteOffset": 1085996,
      "byteStride": 12,
      "name": "floatBufferViews",
      "target": 34962
    }
  ],
  "buffers": [
    {
      "byteLength": 2268860,
      "uri": "scene.bin"
    }
  ],
  "images": [
    {
      "uri": "textures/sky_m_baseColor.png"
    },
    {
      "uri": "textures/textureAtlas_m_baseColor.png"
    },
    {
      "uri": "textures/textureAtlas_m_metallicRoughness.png"
    },
    {
      "uri": "textures/environmentAtlas_m_baseColor.png"
    }
  ],
  "materials": [
    {
      "alphaMode": "BLEND",
      "emissiveFactor": [
        0.0,
        0.03390947393,
        0.043705083445
      ],
      "name": "sky_m",
      "pbrMetallicRoughness": {
        "baseColorFactor": [
          1.0,
          1.0,
          1.0,
          0.8
        ],
        "baseColorTexture": {
          "index": 0
        },
        "metallicFactor": 0.0,
        "roughnessFactor": 0.0
      }
    },
    {
      "doubleSided": true,
      "name": "textureAtlas_m",
      "occlusionTexture": {
        "index": 2,
        "texCoord": 1
      },
      "pbrMetallicRoughness": {
        "baseColorTexture": {
          "index": 1
        },
        "metallicFactor": 0.0,
        "metallicRoughnessTexture": {
          "index": 2,
          "texCoord": 1
        },
        "roughnessFactor": 0.0
      }
    },
    {
      "alphaMode": "BLEND",
      "doubleSided": true,
      "name": "environmentAtlas_m",
      "pbrMetallicRoughness": {
        "baseColorTexture": {
          "index": 3
        },
        "metallicFactor": 0.0,
        "roughnessFactor": 0.0
      }
    }
  ],
  "meshes": [
    {
      "name": "pCylinder109_sky_m_0",
      "primitives": [
        {
          "attributes": {
            "NORMAL": 1,
            "POSITION": 0,
            "TEXCOORD_0": 2,
            "TEXCOORD_1": 3
          },
          "indices": 4,
          "material": 0,
          "mode": 4
        }
      ]
    },
    {
      "name": "group144_textureAtlas_m_0",
      "primitives": [
        {
          "attributes": {
            "NORMAL": 6,
            "POSITION": 5,
            "TEXCOORD_0": 7,
            "TEXCOORD_1": 8
          },
          "indices": 9,
          "material": 1,
          "mode": 4
        }
      ]
    },
    {
      "name": "group144_environmentAtlas_m_0",
      "primitives": [
        {
          "attributes": {
            "NORMAL": 11,
            "POSITION": 10,
            "TEXCOORD_0": 12,
            "TEXCOORD_1": 13,
            "TEXCOORD_2": 14
          },
          "indices": 15,
          "material": 2,
          "mode": 4
        }
      ]
    }
  ],
  "nodes": [
    {
      "children": [
        1
      ],
      "matrix": [
        1.0,
        0.0,
        0.0,
        0.0,
        0.0,
        2.220446049250313e-16,
        -1.0,
        0.0,
        0.0,
        1.0,
        2.220446049250313e-16,
        0.0,
        0.0,
        0.0,
        0.0,
        1.0
      ],
      "name": "Sketchfab_model"
    },
    {
      "children": [
        2
      ],
      "matrix": [
        1.0,
        0.0,
        0.0,
        0.0,
        0.0,
        0.0,
        1.0,
        0.0,
        0.0,
        -1.0,
        0.0,
        0.0,
        0.0,
        0.0,
        0.0,
        1.0
      ],
      "name": "5505329f796741979f6531fce1ae01da.fbx"
    },
    {
      "children": [
        3,
        5
      ],
      "name": "RootNode"
    },
    {
      "children": [
        4
      ],
      "matrix": [
        69.91859076292108,
        4.873059425497203e-16,
        6.587032247917153,
        0.0,
        -6.344982338588407,
        -6.008309626735764e-14,
        67.34933226871678,
        0.0,
        6.822283195696084e-15,
        -70.22818756103516,
        -6.23751606463642e-14,
        0.0,
        38.81254577636719,
        111.87332916259766,
        -63.1878547668457,
        1.0
      ],
      "name": "pCylinder109"
    },
    {
      "mesh": 0,
      "name": "pCylinder109_sky_m_0"
    },
    {
      "children": [
        6,
        7
      ],
      "name": "group144"
    },
    {
      "mesh": 1,
      "name": "group144_textureAtlas_m_0"
    },
    {
      "mesh": 2,
      "name": "group144_environmentAtlas_m_0"
    }
  ],
  "samplers": [
    {
      "magFilter": 9729,
      "minFilter": 9987,
      "wrapS": 10497,
      "wrapT": 10497
    }
  ],
  "scene": 0,
  "scenes": [
    {
      "name": "Sketchfab_Scene",
      "nodes": [
        0
      ]
    }
  ],
  "textures": [
    {
      "sampler": 0,
      "source": 0
    },
    {
      "sampler": 0,
      "source": 1
    },
    {
      "sampler": 0,
      "source": 2
    },
    {
      "sampler": 0,
      "source": 3
    }
  ]
}
